<?xml version="1.0" encoding="utf-8"?>
<!-- Generator: Adobe Illustrator 21.0.0, SVG Export Plug-In . SVG Version: 6.00 Build 0)  -->
<svg version="1.1" id="Layer_1" xmlns="http://www.w3.org/2000/svg" xmlns:xlink="http://www.w3.org/1999/xlink" x="0px" y="0px"
	 viewBox="0 0 214 100" style="enable-background:new 0 0 214 100;" xml:space="preserve">
<style type="text/css">
	.st0{fill:#FFFFFF;}
</style>
<g>
	<g>
		<path class="st0" d="M198.1,31.9c-7.9,0-14.1,6.1-14.1,14c0,7.9,6.2,14,14.1,14c7.9,0,14.1-6.1,14.1-14
			C212.2,38,206,31.9,198.1,31.9 M198.1,36.8c5,0,9,4.2,9,9.2c0,5-4,9.2-9,9.2c-5,0-9-4.2-9-9.2C189.1,40.9,193.1,36.8,198.1,36.8"
			/>
		<path class="st0" d="M132.9,55.1c-5,0-9-4.2-9-9.2c0-5,4-9.2,9-9.2c5,0,9,4.2,9,9.2C141.9,50.9,137.9,55.1,132.9,55.1 M141.9,32.7
			v3h-0.2c-2.1-2.3-5.4-3.8-8.9-3.8c-7.9,0-14.1,6.1-14.1,14c0,7.9,6.2,14,14.1,14c3.5,0,6.8-1.5,8.9-3.8h0.2v2.9h5.1V32.7H141.9z"
			/>
		<path class="st0" d="M165.5,55.1c-5,0-9-4.2-9-9.2c0-5,4-9.2,9-9.2c5,0,9,4.2,9,9.2C174.5,50.9,170.5,55.1,165.5,55.1 M174.4,20
			v15.7h-0.2c-2-2.3-5.4-3.8-8.9-3.8c-7.9,0-14.1,6.1-14.1,14c0,7.9,6.2,14,14.1,14c3.5,0,6.8-1.5,8.9-3.8h0.2v2.9h5.1V20H174.4z"/>
		<path class="st0" d="M114.1,52.2c-1.6,1.8-4,2.9-6.6,2.9c-5,0-9-4.2-9-9.2c0-5,4-9.2,9-9.2c2.6,0,4.9,1.1,6.6,2.9l2.5-4.6
			c-2.4-2-5.6-3.1-9-3.1c-7.9,0-14.1,6.1-14.1,14c0,7.9,6.2,14,14.1,14c3.5,0,6.6-1.2,9-3.2L114.1,52.2z"/>
		<path class="st0" d="M75.5,31.9c-7.9,0-14.1,6.1-14.1,14c0,7.9,6.2,14,14.1,14c7.9,0,14.1-6.1,14.1-14
			C89.6,38,83.4,31.9,75.5,31.9 M75.5,36.8c5,0,9,4.2,9,9.2c0,5-4,9.2-9,9.2c-5,0-9-4.2-9-9.2C66.4,40.9,70.5,36.8,75.5,36.8"/>
	</g>
	<g>
		<path class="st0" d="M4,39.2c-1.2,0-2.2-1-2.2-2.2V26.1c0-1.2,1-2.2,2.2-2.2h10.9c1.2,0,2.2,1,2.2,2.2v13.1H4z"/>
		<path class="st0" d="M21.6,56.8c-1.2,0-2.2-1-2.2-2.2V43.6c0-1.2,1-2.2,2.2-2.2h10.9c1.2,0,2.2,1,2.2,2.2v13.1H21.6z"/>
		<path class="st0" d="M21.6,39.2c-1.2,0-2.2-1-2.2-2.2V26.1c0-1.2,1-2.2,2.2-2.2h10.9c1.2,0,2.2,1,2.2,2.2v13.1H21.6z"/>
		<path class="st0" d="M39.1,56.8c-1.2,0-2.2-1-2.2-2.2V43.6c0-1.2,1-2.2,2.2-2.2H50c1.2,0,2.2,1,2.2,2.2v13.1H39.1z"/>
		<path class="st0" d="M4,74.3c-1.2,0-2.2-1-2.2-2.2V61.2C1.8,60,2.8,59,4,59h10.9c1.2,0,2.2,1,2.2,2.2v13.1H4z"/>
		<path class="st0" d="M39.1,39.2c-1.2,0-2.2-1-2.2-2.2V26.1c0-1.2,1-2.2,2.2-2.2H50c1.2,0,2.2,1,2.2,2.2v13.1H39.1z"/>
		<path class="st0" d="M4,56.8c-1.2,0-2.2-1-2.2-2.2V43.6c0-1.2,1-2.2,2.2-2.2h10.9c1.2,0,2.2,1,2.2,2.2v13.1H4z"/>
		<path class="st0" d="M21.6,74.3c-1.2,0-2.2-1-2.2-2.2V61.2c0-1.2,1-2.2,2.2-2.2h10.9c1.2,0,2.2,1,2.2,2.2v13.1H21.6z"/>
	</g>
	<g>
		<path class="st0" d="M64.6,72.4c0.4,0.4,0.8,0.7,1.3,1c0.5,0.2,1,0.4,1.6,0.4c0.7,0,1.2-0.2,1.6-0.5c0.4-0.3,0.6-0.7,0.6-1.3
			c0-0.3,0-0.5-0.1-0.7c-0.1-0.2-0.2-0.4-0.4-0.5c-0.2-0.1-0.3-0.3-0.6-0.4c-0.2-0.1-0.4-0.2-0.7-0.3l-1.5-0.7
			c-0.2-0.1-0.5-0.2-0.8-0.4c-0.3-0.2-0.5-0.3-0.7-0.6s-0.4-0.5-0.5-0.8c-0.1-0.3-0.2-0.6-0.2-1c0-0.4,0.1-0.8,0.3-1.1
			c0.2-0.3,0.4-0.6,0.7-0.9c0.3-0.3,0.6-0.5,1.1-0.6s0.9-0.2,1.3-0.2c0.6,0,1.2,0.1,1.8,0.4c0.5,0.2,1,0.6,1.4,0.9L70,66.1
			c-0.3-0.3-0.7-0.6-1.1-0.7c-0.4-0.2-0.8-0.3-1.3-0.3c-0.6,0-1.1,0.1-1.4,0.4c-0.4,0.3-0.5,0.7-0.5,1.1c0,0.3,0.1,0.5,0.2,0.7
			c0.1,0.2,0.2,0.3,0.4,0.5c0.2,0.1,0.4,0.3,0.6,0.4s0.4,0.2,0.6,0.3l1.5,0.6c0.3,0.1,0.6,0.3,0.9,0.4c0.3,0.2,0.5,0.4,0.7,0.6
			c0.2,0.2,0.3,0.5,0.5,0.8c0.1,0.3,0.2,0.6,0.2,1c0,0.4-0.1,0.8-0.3,1.2c-0.2,0.4-0.4,0.7-0.7,1c-0.3,0.3-0.7,0.5-1.1,0.6
			c-0.4,0.2-0.9,0.2-1.5,0.2c-0.7,0-1.4-0.1-2.1-0.4c-0.6-0.3-1.2-0.7-1.7-1.2L64.6,72.4z"/>
		<path class="st0" d="M74.8,64.1h1.6l2.1,5.7l0.8,2.2h0.1l0.7-2.2l2-5.7h1.6v10.6h-1.3v-5.9c0-0.5,0-1,0.1-1.6
			c0-0.6,0.1-1.1,0.1-1.6h-0.1l-0.9,2.4l-2,5.6h-0.8l-2.1-5.6l-0.8-2.4h-0.1c0,0.5,0.1,1,0.1,1.6c0,0.6,0.1,1.1,0.1,1.6v5.9h-1.2
			V64.1z"/>
		<path class="st0" d="M93.1,71.5h-3.9l-1,3.2h-1.4l3.6-10.6h1.5l3.6,10.6h-1.4L93.1,71.5z M92.7,70.4l-0.5-1.6
			c-0.2-0.6-0.4-1.2-0.6-1.8s-0.3-1.2-0.5-1.8h-0.1c-0.2,0.6-0.3,1.2-0.5,1.8c-0.2,0.6-0.4,1.2-0.6,1.8l-0.5,1.6H92.7z"/>
		<path class="st0" d="M104.5,74.7l-2.6-4.5H100v4.5h-1.3V64.1h3.3c0.5,0,1,0.1,1.5,0.2c0.5,0.1,0.9,0.3,1.2,0.5
			c0.3,0.2,0.6,0.5,0.8,0.9c0.2,0.4,0.3,0.8,0.3,1.4c0,0.8-0.2,1.5-0.6,2c-0.4,0.5-1,0.8-1.7,1l2.7,4.6H104.5z M100,69.1h1.8
			c0.8,0,1.5-0.2,1.9-0.5s0.7-0.9,0.7-1.5c0-0.7-0.2-1.2-0.7-1.5c-0.4-0.3-1.1-0.4-1.9-0.4H100V69.1z"/>
		<path class="st0" d="M111.6,65.2h-3.2v-1.1h7.8v1.1h-3.2v9.5h-1.4V65.2z"/>
		<path class="st0" d="M124.6,64.1h3.3c0.6,0,1.1,0.1,1.6,0.2c0.5,0.1,0.9,0.3,1.2,0.5c0.3,0.2,0.6,0.6,0.8,1
			c0.2,0.4,0.3,0.9,0.3,1.5c0,0.6-0.1,1-0.3,1.5c-0.2,0.4-0.5,0.8-0.8,1c-0.3,0.3-0.8,0.5-1.2,0.6c-0.5,0.1-1,0.2-1.6,0.2h-1.9v4.2
			h-1.3V64.1z M127.7,69.4c0.9,0,1.6-0.2,2.1-0.5c0.4-0.4,0.7-0.9,0.7-1.7c0-0.8-0.2-1.3-0.7-1.6c-0.5-0.3-1.1-0.4-2.1-0.4h-1.7v4.2
			H127.7z"/>
		<path class="st0" d="M135.5,64.1h1.3v9.5h4.7v1.2h-6V64.1z"/>
		<path class="st0" d="M149.9,71.5H146l-1,3.2h-1.4l3.6-10.6h1.5l3.6,10.6h-1.4L149.9,71.5z M149.6,70.4l-0.5-1.6
			c-0.2-0.6-0.4-1.2-0.6-1.8c-0.2-0.6-0.3-1.2-0.5-1.8h-0.1c-0.2,0.6-0.3,1.2-0.5,1.8c-0.2,0.6-0.4,1.2-0.6,1.8l-0.5,1.6H149.6z"/>
		<path class="st0" d="M157.1,65.2h-3.2v-1.1h7.8v1.1h-3.2v9.5h-1.4V65.2z"/>
		<path class="st0" d="M165.2,64.1h6.1v1.1h-4.8v3.6h4.1v1.1h-4.1v4.8h-1.3V64.1z"/>
		<path class="st0" d="M178.5,74.9c-0.7,0-1.3-0.1-1.8-0.4c-0.6-0.3-1-0.6-1.4-1.1c-0.4-0.5-0.7-1.1-0.9-1.7
			c-0.2-0.7-0.3-1.5-0.3-2.3s0.1-1.6,0.3-2.3c0.2-0.7,0.5-1.2,0.9-1.7c0.4-0.5,0.9-0.8,1.4-1.1c0.6-0.2,1.2-0.4,1.8-0.4
			s1.3,0.1,1.8,0.4c0.6,0.3,1,0.6,1.4,1.1c0.4,0.5,0.7,1,0.9,1.7c0.2,0.7,0.3,1.4,0.3,2.3c0,0.9-0.1,1.6-0.3,2.3
			c-0.2,0.7-0.5,1.3-0.9,1.7c-0.4,0.5-0.9,0.9-1.4,1.1C179.8,74.8,179.2,74.9,178.5,74.9z M178.5,73.7c0.5,0,0.9-0.1,1.3-0.3
			c0.4-0.2,0.7-0.5,1-0.9c0.3-0.4,0.5-0.8,0.6-1.4c0.2-0.5,0.2-1.1,0.2-1.8c0-0.7-0.1-1.3-0.2-1.8c-0.2-0.5-0.4-1-0.6-1.3
			s-0.6-0.7-1-0.9c-0.4-0.2-0.8-0.3-1.3-0.3s-0.9,0.1-1.3,0.3c-0.4,0.2-0.7,0.5-1,0.9c-0.3,0.4-0.5,0.8-0.6,1.3
			c-0.2,0.5-0.2,1.1-0.2,1.8c0,0.7,0.1,1.3,0.2,1.8c0.2,0.5,0.4,1,0.6,1.4c0.3,0.4,0.6,0.7,1,0.9C177.6,73.6,178.1,73.7,178.5,73.7z
			"/>
		<path class="st0" d="M192.8,74.7l-2.6-4.5h-1.9v4.5H187V64.1h3.3c0.5,0,1,0.1,1.5,0.2c0.5,0.1,0.9,0.3,1.2,0.5
			c0.3,0.2,0.6,0.5,0.8,0.9c0.2,0.4,0.3,0.8,0.3,1.4c0,0.8-0.2,1.5-0.6,2c-0.4,0.5-1,0.8-1.7,1l2.7,4.6H192.8z M188.3,69.1h1.8
			c0.8,0,1.5-0.2,1.9-0.5s0.7-0.9,0.7-1.5c0-0.7-0.2-1.2-0.7-1.5c-0.4-0.3-1.1-0.4-1.9-0.4h-1.8V69.1z"/>
		<path class="st0" d="M198,64.1h1.6l2.1,5.7l0.8,2.2h0.1l0.7-2.2l2-5.7h1.6v10.6h-1.3v-5.9c0-0.5,0-1,0.1-1.6
			c0-0.6,0.1-1.1,0.1-1.6h-0.1l-0.9,2.4l-2,5.6h-0.8l-2.1-5.6l-0.8-2.4h-0.1c0,0.5,0.1,1,0.1,1.6c0,0.6,0.1,1.1,0.1,1.6v5.9H198
			V64.1z"/>
	</g>
</g>
</svg>
